<?xml version="1.0" encoding="UTF-8"?>
<svg id="Calque_2" data-name="Calque 2" xmlns="http://www.w3.org/2000/svg" viewBox="0 0 203.5 128.76">
  <defs>
    <style>
      .cls-1 {
        fill: #bfa061;
      }
    </style>
  </defs>
  <g id="Calque_1-2" data-name="Calque 1">
    <g>
      <polygon class="cls-1" points="80.12 13.92 71.85 .5 0 125.24 16.51 124.32 80.12 13.92"/>
      <path class="cls-1" d="m203.5,49.26h-15.1s-24.42-59.31-77.79-24.39c-7.07,4.63-12.59,12.06-15.66,19.93-4.17,10.67-6.29,26.01,1.5,42.29,13.13,27.42,21.1,37.38,21.1,37.38,0,0-35.08-10.32-41.5-55.95-4.42-31.42,18.23-51.1,32.77-60.31C116.45,3.38,125.17.56,134.19.11c19.65-.98,54.8,4.08,69.31,49.16Z"/>
      <path class="cls-1" d="m188.79,79.99h14.71s-8.29,40.66-52.17,48.76h-15.13l-30.42-54.88,1.22-22.78,36.99,62.06s31.49,3.97,44.79-33.17Z"/>
    </g>
  </g>
</svg>